<svg version="1.1" id="Layer_1" xmlns="http://www.w3.org/2000/svg" xmlns:xlink="http://www.w3.org/1999/xlink" x="0px" y="0px" viewBox="0 0 418 345.8516" enable-background="new 0 0 418 345.8516" xml:space="preserve">
<g>
	<path d="M400.044,22.795l1.6719-7.7744L394.2149,0l-68.833,34.3711l22.0732,14.6846l24.9756-12.4717l5.9297,10.4922
		c-0.8057,0.9795-1.2901,2.2324-1.2901,3.5996c0,3.1299,2.5372,5.667,5.6661,5.667c2.165,0,4.0459-1.2148,5-3h22.167v5.5h3.5v7.333
		h3.6669v-29.666h-3.6669v7.333h-3.5v5.5l-21.6651-0.0019c-0.6006-2.4834-2.833-4.3311-5.5019-4.3311
		c-0.3086,0-0.6094,0.0313-0.9043,0.0791l-5.8184-10.2939L400.044,22.795z M390.7373,6.8428c1.5655,0,2.834,1.2686,2.834,2.833
		c0,1.5655-1.2685,2.834-2.834,2.834c-1.5644,0-2.833-1.2685-2.833-2.834C387.9043,8.1114,389.1729,6.8428,390.7373,6.8428z" id="id_106"></path>
	<path d="M261.3233,70.1436h29.831v168.459h-7.1523c0.4785,1.6182,0.9414,3.2822,1.3838,4.999h10.7685V65.1436H257.666
		C258.9424,66.8516,260.1553,68.5137,261.3233,70.1436z" id="id_107"></path>
	<path d="M164.668,65.1436v5h72.7158c0.1406-1.7617,0.7022-3.4795,1.6612-5H164.668z" id="id_108"></path>
	<path d="M253.0928,243.6016c-0.5723-1.6992-1.1846-3.3642-1.8311-4.999H164.668v4.583v0.416H253.0928z" id="id_109"></path>
	<path d="M243.6621,112.6739c-2.4277-12.1826-14.2754-20.0908-26.457-17.6631c-12.1836,2.4297-20.0937,14.2744-17.666,26.459
		c2.4287,12.1836,14.2754,20.0927,26.4609,17.6621C238.1817,136.7041,246.0909,124.8584,243.6621,112.6739z" id="id_110"></path>
	<path d="M270.0977,213.1846c-0.7276-1.2763-1.4551-2.4756-2.1817-3.6396c-1.2431-1.9912-2.4736-3.8174-3.6777-5.4922
		c-0.3027-23.5518-1.3711-47.0381-9.0615-68.8916c2.5644-0.0625,5.3174-0.2676,8.1465-0.9571
		c1.9453-0.4736,3.9258-1.1748,5.9023-2.2167c2.6231-1.4063,5.2188-3.6084,7-6.6133c1.7979-2.9932,2.6641-6.5899,2.6494-10.2881
		c-0.0341-5.9981-1.9726-12.4199-5.8095-20.2842c-3.8682-7.8584-9.7618-17.1758-18.3418-28.5918
		c-2.6553-3.5322-7.6709-4.2412-11.2012-1.5879c-3.5313,2.6563-4.2402,7.6709-1.585,11.2031
		c8.1729,10.8653,13.5498,19.4786,16.7676,26.0342c3.2471,6.5479,4.207,11.0186,4.1719,13.2266
		c-0.0137,1.3965-0.2656,1.8584-0.3906,2.0879c-0.1729,0.2763-0.5147,0.7148-2.0918,1.247
		c-0.1026,0.0332-0.2178,0.0635-0.3282,0.0957c-1.5195,0.4356-3.7588,0.6778-6.0976,0.668c-2.0088,0-4.0752-0.1494-5.9395-0.3105
		c-0.709-0.0586-1.3554-0.1201-1.9892-0.1778c-0.7207,10.7754-8.5655,20.1885-19.6475,22.3965
		c-1.5898,0.3164-3.2109,0.4785-4.8164,0.4785c-7.2334,0-13.8711-3.2109-18.4053-8.3857c-2.5605,0.0537-5.0508,1.332-6.5508,3.6435
		l-0.0019,0.002c-0.2793,0.4307-4.7715,7.0371-12.6533,13.8301c-5.1289,4.4297-11.628,8.8789-19.2969,11.9765v16.9561
		c12.9561-3.9824,23.2393-11.0527,30.6514-17.6064c2.5644-2.2725,4.7871-4.4844,6.6894-6.5196
		c9.9756,10.2197,16.0254,19.8994,15.7412,38.875l-30.8369,18.2031c-3.3076,1.9512-5.5342,5.3184-6.039,9.1241
		c-0.504,3.8066,0.7724,7.6377,3.458,10.3828l2.4912,2.5469h34.9726l-8.4433-8.6309l19.4052-11.4551
		c2.669,0.0156,5.3389,0.0322,8.0079,0.0479c2.0136,2.3769,4.4453,5.6318,6.9521,9.8759c0.8535,1.4444,1.7129,2.9913,2.5684,4.6661
		c6.2744,12.3281,12.3408,31.0615,12.3564,58.4619c0,3.3955-0.0957,6.9297-0.2939,10.6084
		c-0.375,6.8935,4.9111,12.7851,11.8037,13.1592c0.2314,0.0127,0.4609,0.0185,0.6885,0.0185
		c6.5947,0,12.1113-5.1611,12.4726-11.8232c0.2207-4.1133,0.3291-8.0977,0.3291-11.9629
		C287.668,253.2833,279.0967,228.9278,270.0977,213.1846z" id="id_111"></path>
	<path d="M159.668,243.1846V64.7266H32v178.458H159.668z M37.002,69.7266h117.666v168.459H37.002V69.7266z" id="id_112"></path>
	
		<rect x="81.9576" y="151.9767" transform="matrix(0.7071 -0.7071 0.7071 0.7071 -80.7886 111.5731)" width="24.6659" height="2.6669" id="id_113"></rect>
	
		<rect x="95.0387" y="165.058" transform="matrix(0.7073 -0.7069 0.7069 0.7073 -86.1982 124.6122)" width="24.6662" height="2.6672" id="id_114"></rect>
	
		<rect x="62.7481" y="158.5173" transform="matrix(0.7069 -0.7073 0.7073 0.7069 -83.5101 118.1665)" width="76.1659" height="2.6676" id="id_115"></rect>
	<rect y="340.8516" width="418" height="5" id="id_116"></rect>
	<path d="M377.1709,183.4053h30.1319v-1V169.129h-15.0655v-12.2784h-15.0664v-12.2763h-32.1338v14.2763h15.0664v10.2764h-15.0664
		v14.2793h32.1338V183.4053z M405.3037,181.4053h-28.1328V171.129h15.0664v-0.002h13.0664V181.4053z M347.0352,156.8506v-10.2763
		h28.1357v10.2763h-15.0674H347.0352z M362.1026,158.8506h15.0683h13.0674v10.2774h-13.0674v-0.001h-15.0683V158.8506z
		 M347.0352,171.129h13.0683h15.0674v10.2753h-28.1357V171.129z" id="id_117"></path>
	<path d="M139.1709,308.0733v-0.999V293.795h-15.0693v-10.2764H139.17v-1.001v-13.2783h-32.1338v12.2783H91.9688v14.2783h15.0674
		v12.2774H139.1709z M137.1709,306.0723h-28.1357v-10.2764h15.0664v-0.0019h13.0693V306.0723z M109.0362,271.2403h28.1357v10.2763
		h-28.1357V271.2403z M93.9678,293.795v-10.2784h13.0684v0.002h15.0664v10.2764h-15.0664H93.9678z" id="id_118"></path>
	<path d="M328.0362,253.5176h-15.0674v14.2774h32.1328v-0.9991v-11.2783h15.0693v-0.999v-13.2793h-32.1347V253.5176z
		 M343.1026,265.794h-28.1348v-10.2754h28.1348V265.794z M330.0362,243.2393h28.1347v10.2783h-13.0693h-15.0654V243.2393z" id="id_119"></path>
</g>
</svg>